<?xml version="1.0" encoding="UTF-8" standalone="no"?>
<!DOCTYPE svg PUBLIC "-//W3C//DTD SVG 1.1//EN" "http://www.w3.org/Graphics/SVG/1.1/DTD/svg11.dtd">
<svg xmlns="http://www.w3.org/2000/svg" version="1.1" viewBox="0.00 0.00 1162.00 552.00">
<path fill="#0f0052" d="
  M 39.64 384.15
  Q 114.94 256.66 190.22 129.19
  A 0.34 0.34 0.0 0 1 190.81 129.19
  L 219.27 177.49
  Q 219.59 178.03 219.18 178.50
  Q 126.24 285.23 40.42 384.38
  Q 40.08 384.78 39.75 385.19
  Q 39.32 385.73 39.37 385.05
  Q 39.40 384.57 39.64 384.15
  Z"
/>
<path fill="#0f0052" d="
  M 537.81 382.24
  L 512.46 450.76
  A 0.37 0.37 0.0 0 1 512.11 451.00
  L 447.13 451.00
  A 0.37 0.37 0.0 0 1 446.79 450.50
  L 566.70 129.24
  A 0.37 0.37 0.0 0 1 567.05 129.00
  L 642.01 129.00
  A 0.37 0.37 0.0 0 1 642.36 129.24
  L 762.72 450.50
  A 0.37 0.37 0.0 0 1 762.38 451.00
  L 696.06 451.00
  A 0.37 0.37 0.0 0 1 695.71 450.76
  L 670.35 382.24
  A 0.37 0.37 0.0 0 0 670.00 382.00
  L 538.16 382.00
  A 0.37 0.37 0.0 0 0 537.81 382.24
  Z
  M 558.76 325.40
  A 0.32 0.32 0.0 0 0 559.06 325.83
  L 648.64 325.68
  A 0.32 0.32 0.0 0 0 648.94 325.24
  L 603.94 203.53
  A 0.32 0.32 0.0 0 0 603.34 203.53
  L 558.76 325.40
  Z"
/>
<rect fill="#0f0052" x="784.25" y="129.00" width="66.00" height="322.00" rx="0.43"/>
<path fill="#0f0052" d="
  M 967.75 333.45
  L 967.75 450.50
  A 0.50 0.50 0.0 0 1 967.25 451.00
  L 902.25 451.00
  Q 901.75 451.00 901.75 450.50
  L 901.75 129.55
  Q 901.75 129.06 902.24 129.05
  Q 978.19 128.82 1037.22 129.18
  Q 1042.31 129.22 1042.50 129.22
  C 1075.55 130.50 1109.77 139.64 1131.63 164.72
  Q 1148.58 184.18 1152.56 212.69
  Q 1155.34 232.59 1152.09 252.08
  C 1147.03 282.45 1129.71 305.64 1102.50 318.93
  C 1080.74 329.56 1056.39 332.84 1032.18 332.79
  Q 998.83 332.71 968.44 332.76
  Q 967.75 332.76 967.75 333.45
  Z
  M 1084.26 211.47
  C 1075.80 191.49 1052.50 185.52 1032.94 185.37
  Q 1003.30 185.14 968.24 185.31
  Q 967.75 185.31 967.75 185.81
  L 967.75 275.96
  Q 967.75 276.46 968.25 276.46
  Q 999.78 276.53 1033.25 276.42
  C 1050.05 276.37 1068.64 271.83 1079.74 258.06
  Q 1086.04 250.24 1087.74 237.00
  Q 1089.44 223.72 1084.26 211.47
  Z"
/>
<path fill="#0f0052" d="
  M 273.52 269.81
  L 25.78 413.43
  A 0.12 0.12 0.0 0 1 25.62 413.40
  L 25.49 413.22
  A 0.12 0.12 0.0 0 1 25.51 413.06
  L 248.01 226.54
  A 0.12 0.12 0.0 0 1 248.19 226.57
  L 273.56 269.65
  A 0.12 0.12 0.0 0 1 273.52 269.81
  Z"
/>
<path fill="#0f0052" d="
  M 18.38 432.03
  Q 158.95 373.75 299.85 315.35
  A 0.64 0.63 -26.5 0 1 300.65 315.61
  L 327.02 360.38
  Q 327.36 360.96 326.71 361.11
  L 12.21 435.25
  Q 9.98 435.77 12.05 434.80
  Q 14.71 433.56 18.38 432.03
  Z"
/>
<path fill="#0f0052" d="
  M 380.32 451.25
  L 1.06 451.25
  A 0.13 0.13 0.0 0 1 0.93 451.13
  L 0.92 450.90
  A 0.13 0.13 0.0 0 1 1.03 450.76
  L 351.91 405.39
  A 0.13 0.13 0.0 0 1 352.03 405.45
  L 380.43 451.05
  A 0.13 0.13 0.0 0 1 380.32 451.25
  Z"
/>
</svg>
