<?xml version="1.0" encoding="UTF-8" standalone="no"?>
<!-- Created with Inkscape (http://www.inkscape.org/) -->

<svg
   width="12.554479mm"
   height="11.382375mm"
   viewBox="0 0 12.554479 11.382375"
   version="1.1"
   id="svg1"
   xml:space="preserve"
   inkscape:version="1.4.2 (ebf0e940, 2025-05-08)"
   sodipodi:docname="hkupress.svg"
   xmlns:inkscape="http://www.inkscape.org/namespaces/inkscape"
   xmlns:sodipodi="http://sodipodi.sourceforge.net/DTD/sodipodi-0.dtd"
   xmlns="http://www.w3.org/2000/svg"
   xmlns:svg="http://www.w3.org/2000/svg"><sodipodi:namedview
     id="namedview1"
     pagecolor="#ffffff"
     bordercolor="#000000"
     borderopacity="0.25"
     inkscape:showpageshadow="2"
     inkscape:pageopacity="0.0"
     inkscape:pagecheckerboard="0"
     inkscape:deskcolor="#d1d1d1"
     inkscape:document-units="mm"
     inkscape:zoom="5.9295174"
     inkscape:cx="-14.50371"
     inkscape:cy="43.173834"
     inkscape:window-width="1640"
     inkscape:window-height="997"
     inkscape:window-x="42"
     inkscape:window-y="25"
     inkscape:window-maximized="1"
     inkscape:current-layer="layer1" /><defs
     id="defs1"><style
       id="style1">.cls-1{fill:none;}.cls-2{clip-path:url(#clip-path);}.cls-3{fill:#005831;}.cls-4{fill:#739f80;}</style><clipPath
       id="clip-path"><rect
         class="cls-1"
         x="0.68000001"
         width="60.150002"
         height="57.84"
         id="rect1"
         y="0" /></clipPath></defs><g
     inkscape:label="Layer 1"
     inkscape:groupmode="layer"
     id="layer1"
     transform="translate(-553.58109,668.20786)"><g
       class="cls-2"
       clip-path="url(#clip-path)"
       id="g22"
       transform="matrix(0.26458333,0,0,0.26458333,551.48559,-670.26367)"><path
         class="cls-3"
         d="M 10.91,45.55 H 12 a 3.81,3.81 0 0 1 -0.67,1 5.39,5.39 0 0 1 -1.36,1 v 0 a 5.3,5.3 0 0 0 1,-1.91 m 2,-1.27 v 0.47 H 15 v 0.52 h -2.09 v 1.95 H 12.05 V 45.27 H 10 v -0.52 h 2.1 v -0.46 a 7.82,7.82 0 0 1 -1.91,-0.35 v -0.1 a 12.12,12.12 0 0 0 3.4,-0.53 l 1.12,0.66 a 10.28,10.28 0 0 1 -1.75,0.31 m -2.35,2.88 h 0.85 v 0.26 h 2.08 l 0.21,-0.31 0.92,0.26 -0.25,0.34 v 2.92 H 13.5 v -0.39 h -2.09 v 0.43 H 10.56 Z M 13.5,48 h -2.09 v 0.6 h 2.09 z m 0,1.11 h -2.09 v 0.65 h 2.09 z m 1.61,-2.65 v 0.08 a 0.53,0.53 0 0 0 -0.32,0.49 0.71,0.71 0 0 0 0.09,0.33 v 0.06 A 2.42,2.42 0 0 1 13.14,45.5 h 0.13 a 3.33,3.33 0 0 0 0.8,0.68 3,3 0 0 0 1.08,0.31"
         id="path1" /><path
         class="cls-3"
         d="m 16.25,49.44 a 6.11,6.11 0 0 0 1,-2.19 h 0.11 c 0,0.24 0,0.44 0,0.59 a 5.12,5.12 0 0 0 0.89,-1.53 l 0.11,-0.32 H 17.57 V 45.5 h 0.62 v -0.9 h -0.47 v -0.52 h 0.47 v -0.69 h 0.82 v 0.69 h 0.83 v -0.69 h 0.81 v 0.69 h 0.56 v 0.52 h -0.56 v 0.9 h 0.62 V 46 h -0.99 a 1.83,1.83 0 0 0 1.22,1 v 0.1 c -0.21,0 -0.32,0.18 -0.32,0.44 a 1.39,1.39 0 0 0 0.11,0.39 l -0.07,0.06 A 3.65,3.65 0 0 1 20.7,47.6 v 1.54 h -0.84 v -0.2 h -0.92 v 0.6 c 0,0.17 0,0.27 0.13,0.3 a 2.14,2.14 0 0 0 0.64,0 1.09,1.09 0 0 0 0.77,-0.24 3.75,3.75 0 0 0 0.62,-0.86 l 0.07,0.05 a 3.48,3.48 0 0 0 -0.2,0.67 0.25,0.25 0 0 0 0.13,0.25 c 0.09,0 0.13,0.08 0.13,0.11 a 1,1 0 0 1 -0.13,0.28 0.92,0.92 0 0 1 -0.43,0.39 2.4,2.4 0 0 1 -1,0.15 2.52,2.52 0 0 1 -1.24,-0.21 0.84,0.84 0 0 1 -0.32,-0.76 v -2.04 a 4.9,4.9 0 0 1 -0.68,0.4 7.26,7.26 0 0 1 -0.18,1.36 6,6 0 0 1 -0.53,1.24 z m 0.07,-4 v -0.09 a 2.06,2.06 0 0 1 1.11,0.47 0.85,0.85 0 0 1 0.18,0.49 0.65,0.65 0 0 1 -0.1,0.35 0.3,0.3 0 0 1 -0.25,0.13 q -0.36,0 -0.48,-0.66 c 0,0 -0.05,-0.11 -0.13,-0.25 A 1.93,1.93 0 0 0 16.3,45.44 m 0.1,-1.91 v -0.06 a 3.46,3.46 0 0 1 1.1,0.45 0.58,0.58 0 0 1 0.17,0.46 0.83,0.83 0 0 1 -0.11,0.4 c -0.07,0.13 -0.15,0.19 -0.25,0.19 -0.1,0 -0.37,-0.18 -0.48,-0.53 -0.11,-0.35 -0.13,-0.4 -0.16,-0.48 a 2.52,2.52 0 0 0 -0.31,-0.43 m 2.35,3.52 h 0.17 v 0.14 h 0.89 l 0.24,-0.22 0.23,0.13 A 3.91,3.91 0 0 1 19.88,46 h -0.53 a 5.62,5.62 0 0 1 -0.58,1 m 1.09,0.67 h -0.92 v 0.66 h 0.92 z m -0.78,-2.23 h 0.83 v -0.9 h -0.83 z"
         id="path2" /><path
         class="cls-3"
         d="m 22.67,45.14 h 2 c 0,-0.23 0,-0.37 0,-0.42 0,-0.32 0,-0.76 0,-1.35 h 0.92 c 0,0.78 0,1.37 -0.05,1.77 h 2 v 0.56 h -2 a 8.44,8.44 0 0 0 0.86,2.3 3.79,3.79 0 0 0 1.33,1.64 v 0.12 a 0.52,0.52 0 0 0 -0.48,0.56 1.46,1.46 0 0 0 0.07,0.35 h -0.07 a 3.24,3.24 0 0 1 -1.09,-1.25 6.17,6.17 0 0 1 -0.65,-2 l -0.15,-1 a 9.76,9.76 0 0 1 -0.47,1.62 5,5 0 0 1 -0.53,0.94 5.4,5.4 0 0 1 -0.67,0.78 6.66,6.66 0 0 1 -1.05,0.77 l -0.07,-0.09 a 7.79,7.79 0 0 0 2,-4.78 h -1.9 z"
         id="path3" /><path
         class="cls-3"
         d="m 29.24,43.66 h 0.65 v 0.25 a 2.23,2.23 0 0 0 0.57,-0.52 l 0.33,0.32 v -0.06 c 0.11,0 0.27,0.13 0.48,0.25 a 4.5,4.5 0 0 0 0.26,-0.56 l 0.64,0.23 a 5.31,5.31 0 0 1 -0.49,0.6 0.75,0.75 0 0 1 0.32,0.53 0.29,0.29 0 0 1 -0.08,0.22 0.26,0.26 0 0 1 -0.19,0.09 0.27,0.27 0 0 1 -0.16,0 1.35,1.35 0 0 1 -0.27,-0.4 7.35,7.35 0 0 1 -0.8,0.47 V 45.2 H 30 v 0.51 h 0.56 v 0.45 H 30 v 0.51 h 2.61 V 46.14 H 32.03 V 45.6 h 0.59 V 45.12 H 32.03 V 44.7 h 0.59 V 44.14 H 32.04 V 43.7 h 0.57 l 0.19,-0.31 0.73,0.25 -0.23,0.3 -0.12,2.64 0.19,-0.31 0.68,0.45 a 2.52,2.52 0 0 0 -0.31,0.25 3,3 0 0 1 -0.74,0.6 l 0.17,0.06 -0.43,0.19 a 3.1,3.1 0 0 1 -1,0.44 v 0.13 h 2 v 0.51 h -2 v 1 a 1.32,1.32 0 0 1 -0.08,0.54 0.51,0.51 0 0 1 -0.34,0.22 2,2 0 0 1 -0.42,0.06 c -0.1,0 -0.16,0 -0.18,0 -0.02,0 0,-0.1 0,-0.21 a 0.37,0.37 0 0 0 -0.14,-0.28 1,1 0 0 0 -0.46,-0.2 v -0.11 a 4.18,4.18 0 0 0 0.59,0 c 0.19,0 0.28,-0.07 0.28,-0.22 V 48.9 H 29 v -0.51 h 2.1 v -0.11 h 0.19 a 2.69,2.69 0 0 0 0.54,-0.41 H 29.7 v -0.51 h 2.44 l 0.25,-0.25 0.49,0.29 a 1.5,1.5 0 0 0 0.25,-0.34 h -3.66 c 0,0.14 0,0.31 0,0.5 0,0.19 -0.1,0.29 -0.22,0.29 a 0.33,0.33 0 0 1 -0.23,-0.11 0.44,0.44 0 0 1 -0.09,-0.29 0.94,0.94 0 0 1 0.08,-0.36 1.25,1.25 0 0 0 0.11,-0.39 v -0.27 h 0.07 l 0.18,0.18 h 0.1 z M 30,44.72 h 0.59 v 0.13 a 7,7 0 0 0 0.56,-0.68 1.12,1.12 0 0 0 -0.22,-0.31 7.41,7.41 0 0 1 -1,0.27 z m 1.05,1 a 2.63,2.63 0 0 0 -0.43,-0.56 h 0.05 a 4.11,4.11 0 0 1 0.6,0.28 l 0.25,-0.42 0.61,0.2 a 2.87,2.87 0 0 1 -0.44,0.52 0.65,0.65 0 0 1 0.25,0.44 0.41,0.41 0 0 1 -0.08,0.25 0.23,0.23 0 0 1 -0.19,0.1 c -0.15,0 -0.28,-0.13 -0.41,-0.4 a 4.61,4.61 0 0 1 -0.84,0.47 l -0.05,-0.1 a 5,5 0 0 0 0.68,-0.73"
         id="path4" /><polygon
         class="cls-3"
         points="36.34,49.74 37.34,49.74 37.34,46.61 36.42,46.61 36.23,46.96 35.31,46.57 35.6,46.19 35.6,43.74 36.42,43.74 36.42,46.06 37.34,46.06 37.34,43.32 38.2,43.32 38.2,46.06 39.1,46.06 39.1,43.69 39.95,43.69 39.95,46.81 39.1,46.81 39.1,46.61 38.2,46.61 38.2,49.74 39.17,49.74 39.17,47.26 40.02,47.26 40.02,50.62 39.15,50.62 39.15,50.29 36.32,50.29 36.09,50.63 35.22,50.23 35.5,49.9 35.5,47.29 36.34,47.29 "
         id="polygon4" /><path
         class="cls-3"
         d="m 41.6,43.52 h 0.79 v 1.83 h 0.31 v -2 h 0.71 v 2 h 0.3 v 0.54 H 42.39 V 47 h 0.28 l 0.21,-0.33 0.76,0.27 -0.23,0.3 v 3.24 h -0.72 v -3 h -0.31 a 8.22,8.22 0 0 1 -0.11,1.42 3.53,3.53 0 0 1 -0.3,0.84 6.87,6.87 0 0 1 -0.52,0.87 h -0.08 a 8.13,8.13 0 0 0 0.23,-2.26 z m 2.21,0 h 0.74 v 0.27 a 5,5 0 0 0 1.11,-0.46 l 0.85,0.63 a 2.91,2.91 0 0 1 -1.13,0.24 6.74,6.74 0 0 1 -0.83,-0.09 v 1.2 h 0.88 l 0.21,-0.36 0.9,0.28 -0.26,0.34 a 9.87,9.87 0 0 1 -0.4,2.64 l -0.13,0.37 a 7.92,7.92 0 0 0 0.44,0.78 1.23,1.23 0 0 0 0.41,0.36 v 0.08 a 0.45,0.45 0 0 0 -0.44,0.5 2.48,2.48 0 0 0 0.09,0.44 l -0.07,0.05 a 4.7,4.7 0 0 1 -0.86,-1.37 8.19,8.19 0 0 1 -1.21,1.27 h -0.05 a 12.34,12.34 0 0 0 1,-2 6.51,6.51 0 0 1 -0.27,-1.36 c 0,-0.4 0,-0.87 -0.05,-1.4 H 44.6 c 0,1.36 0,2.22 -0.07,2.59 a 3.09,3.09 0 0 1 -0.32,1.06 9.09,9.09 0 0 1 -0.65,1.12 h -0.08 a 9.94,9.94 0 0 0 0.38,-3.11 z m 1.44,4 a 12,12 0 0 0 0.18,-1.69 h -0.55 a 7.42,7.42 0 0 0 0.37,1.69"
         id="path5" /><path
         class="cls-3"
         d="m 47.82,45.24 h 1 l 0.27,-0.36 0.91,0.29 -0.27,0.31 a 4.86,4.86 0 0 1 -0.4,0.91 v 0.22 a 1.26,1.26 0 0 1 0.77,0.45 1,1 0 0 1 0.13,0.45 0.59,0.59 0 0 1 -0.09,0.34 0.27,0.27 0 0 1 -0.23,0.14 0.27,0.27 0 0 1 -0.26,-0.13 2.38,2.38 0 0 1 -0.12,-0.51 1,1 0 0 0 -0.2,-0.55 v 3.86 h -0.77 v -3.33 l -0.69,0.53 V 47.8 a 6.47,6.47 0 0 0 0.91,-2 h -0.91 z m 0.62,-1.79 v -0.07 a 2.63,2.63 0 0 1 0.38,-0.05 1,1 0 0 1 0.57,0.21 0.8,0.8 0 0 1 0.29,0.68 0.41,0.41 0 0 1 -0.1,0.29 0.28,0.28 0 0 1 -0.22,0.11 0.36,0.36 0 0 1 -0.28,-0.16 3.68,3.68 0 0 1 -0.46,-0.76 0.87,0.87 0 0 0 -0.19,-0.25 m 1.29,6.44 h 1.15 v -4.08 h -0.81 v -0.54 h 0.81 v -1.88 h 0.83 v 1.88 h 0.83 v 0.54 H 51.7 v 4.08 h 1 v 0.53 h -3 z"
         id="path6" /><path
         class="cls-4"
         d="m 41.07,17.38 a 11.07,11.07 0 0 0 1.3,-1.11 2.37,2.37 0 0 1 2.17,-0.7 3.34,3.34 0 0 0 -2.09,-0.5 2.63,2.63 0 0 0 -1.32,0.65 1.12,1.12 0 0 1 -0.47,0.23 v 0.18 a 1.86,1.86 0 0 0 0.41,1.25"
         id="path7" /><path
         class="cls-4"
         d="m 46.22,18.55 a 7.06,7.06 0 0 1 -1.29,-1.13 2.16,2.16 0 0 0 0.07,1.11 16.29,16.29 0 0 0 -1.82,-0.92 3.62,3.62 0 0 1 0.36,0.88 11.74,11.74 0 0 0 1.64,0.1 c 0.35,0 0.68,0 1,0"
         id="path8" /><path
         class="cls-4"
         d="m 35.22,13.43 a 12.26,12.26 0 0 1 -0.76,1.34 l 0.77,0.69 a 4.19,4.19 0 0 0 0,-2"
         id="path9" /><path
         class="cls-4"
         d="m 8,18.35 c 0,0 1,0 1.28,0.46 a 0.89,0.89 0 0 0 0.36,1.27 1.15,1.15 0 0 1 0.16,0.18 v -2 A 1.4,1.4 0 0 0 8,18.31"
         id="path10" /><path
         class="cls-4"
         d="m 47.08,17.23 a 1.29,1.29 0 0 0 -0.77,1.32 8.17,8.17 0 0 0 1.36,-0.23 1.66,1.66 0 0 1 -0.59,-1.09"
         id="path11" /><path
         class="cls-4"
         d="m 13.79,19.56 a 3.11,3.11 0 0 0 0.45,-2.08 2.33,2.33 0 0 0 -0.84,-1.24 v 3.67 l 0.39,-0.35"
         id="path12" /><path
         class="cls-4"
         d="m 49.89,23.89 c 0.73,-0.36 1.29,-0.89 1.74,-1.05 a 18.43,18.43 0 0 1 2,-0.3 3.07,3.07 0 0 0 1.73,-2 4.21,4.21 0 0 1 -1,0.6 6.89,6.89 0 0 1 -1.7,0 1.85,1.85 0 0 0 -1.36,0.44 C 50.95,21.92 50.88,22 50.88,22 a 1.72,1.72 0 0 0 0.17,-0.76 c 0,-0.45 1.21,-1.32 1.21,-1.32 a 6.58,6.58 0 0 0 1.34,-0.62 4.94,4.94 0 0 0 1.77,-2.63 c 0,0 -1.21,0.64 -2.18,1.1 a 4.63,4.63 0 0 1 -2.19,2.81 8,8 0 0 1 -1.6,0.79 1.44,1.44 0 0 1 -1,0.88 8.14,8.14 0 0 1 -3.87,-0.07 C 44.23,22.1 43.85,22 43.41,21.92 A 12.5,12.5 0 0 1 42,21.66 18.86,18.86 0 0 0 39.4,21.45 h -0.88 v 1.42 L 37,21.6 c -1.08,0.14 -2.12,0.34 -3.07,0.55 a 32.45,32.45 0 0 1 -6.17,0.65 20.85,20.85 0 0 1 -4.23,-0.55 1.6,1.6 0 0 0 0,-0.47 H 22.61 V 17.1 A 1,1 0 0 0 22.19,17.41 2.62,2.62 0 0 0 21.72,16 1.9,1.9 0 0 0 21.21,16.59 5,5 0 0 0 20.97,15.89 H 20.39 A 2,2 0 0 0 20.2,16.3 c 0,0 -0.09,-0.2 -0.21,-0.41 h -0.64 a 3.68,3.68 0 0 0 -0.29,0.69 7.15,7.15 0 0 0 -0.77,-0.69 v 0 A 2.88,2.88 0 0 0 17.82,17 c 0,0 -0.7,-0.34 -0.92,-0.42 A 4,4 0 0 0 16.78,20 c 0,0 -0.86,0.08 -1,1.36 a 1.29,1.29 0 0 0 0.55,0 3.4,3.4 0 0 0 -0.38,1.77 h 0.16 a 2.39,2.39 0 0 0 0,1.1 l 0.23,-0.17 a 2.64,2.64 0 0 0 -0.07,1.25 20.62,20.62 0 0 1 -2.49,-1.64 6.93,6.93 0 0 1 -1,-1.82 h -3 v -1.46 c -0.16,0.07 -0.71,0.33 -0.56,0.86 a 2.45,2.45 0 0 1 -1.21,0.1 c 0,0 0.59,1.27 1.65,1 0,0 0.91,0.19 1.22,-0.45 0,0 -0.09,0.87 0.18,1.14 a 1.27,1.27 0 0 0 -1.4,0.41 2,2 0 0 0 1.44,0.71 2.57,2.57 0 0 1 -0.8,0.52 c 0,0 0.3,0.52 1.53,0.52 0,0 -0.36,0.69 -0.63,0.81 a 3,3 0 0 0 1.48,0.17 c 0,0 -0.11,0.83 -0.48,1 A 2.9,2.9 0 0 0 13.93,27 c 0,0 -0.1,0.88 -0.42,1.06 A 2.67,2.67 0 0 0 15,27.86 c 0.64,-0.38 0,0 0,0 a 4,4 0 0 1 0,1.2 1.34,1.34 0 0 0 1.19,-0.47 10.34,10.34 0 0 0 1.47,0.53 6.58,6.58 0 0 1 -2.11,0.55 c -0.88,0 -2.43,0.14 -2.86,-0.18 0,0 -0.89,-1.4 -1.06,-1.58 -0.17,-0.18 -0.7,-0.69 -1,-0.63 A 1.09,1.09 0 0 0 9.93,27 c -0.46,0 -0.8,0.67 -0.87,0.75 -0.07,0.08 0.83,-0.22 1.19,0 0,0 -0.35,0.67 0.11,1 0,0 -0.94,-0.34 -1.1,-0.11 0,0 -0.75,-0.11 -0.93,0.08 a 1.68,1.68 0 0 0 -0.41,0.76 2,2 0 0 1 1.24,-0.18 1,1 0 0 0 0.72,1 0.32,0.32 0 0 0 -0.17,0.25 c 0,0 -1.24,0.25 -0.71,1.63 0,0 0.08,-0.81 0.68,-1 a 1.37,1.37 0 0 0 0.21,0.37 v -0.1 a 0.59,0.59 0 0 1 0.59,-0.59 h 4.43 a 3.86,3.86 0 0 1 2.42,0.7 l 0.05,-0.07 c 0,0 0,0.05 0,0.12 a 1.51,1.51 0 0 1 0.23,0.21 2.37,2.37 0 0 1 0.29,0.34 v -0.71 a 0.58,0.58 0 0 1 0.59,-0.59 h 4.21 a 2.7,2.7 0 0 0 0.61,-0.34 0.72,0.72 0 0 0 0.15,-1 14.22,14.22 0 0 1 -0.56,-1.32 c 0,0 2.41,0.13 2.89,0.13 a 6.94,6.94 0 0 0 2.62,-0.68 c 1.05,-0.51 4.54,-2.53 5.93,-2.53 0,0 -0.79,1 -0.66,1.62 a 4.07,4.07 0 0 0 1.32,1.88 4.74,4.74 0 0 1 -1.83,1 9,9 0 0 1 -3,0.09 c 0,0 -0.6,-1.15 -0.92,-1.24 a 0.91,0.91 0 0 0 -0.52,0 1.64,1.64 0 0 0 -0.64,-0.18 1.67,1.67 0 0 0 -1,0.55 c 0,0 1,-0.09 1.22,0.36 0,0 -0.1,0.33 0,0.41 0.1,0.08 -1,-0.22 -1.23,0.09 a 1.2,1.2 0 0 0 -1.15,1.3 1.45,1.45 0 0 1 1,-0.52 1.44,1.44 0 0 0 0.3,0.38 H 34 V 30.7 a 1.21,1.21 0 0 1 0.19,0.16 h 0.13 a 0.58,0.58 0 0 1 0.58,0.59 V 32 a 1.42,1.42 0 0 1 0.07,0.22 2.94,2.94 0 0 0 1.29,-1.57 3.71,3.71 0 0 1 0.33,0.79 4.11,4.11 0 0 1 1,-0.49 1.28,1.28 0 0 0 0.19,-0.66 2.31,2.31 0 0 1 0.66,0.46 5.45,5.45 0 0 1 0.89,-0.08 0.88,0.88 0 0 0 0.12,-0.2 A 8.56,8.56 0 0 0 40,29 1.51,1.51 0 0 0 39.51,28.18 c -0.25,-0.25 -1.33,-1.27 -1.44,-1.46 a 1.59,1.59 0 0 1 0,-1.33 5.29,5.29 0 0 0 1.35,1.75 5.59,5.59 0 0 0 2.67,1 29.08,29.08 0 0 0 3.61,-0.39 18.4,18.4 0 0 1 2.94,-0.25 c 0.87,0 2.83,0.21 3,1.29 0.08,0.71 0,1.13 -0.26,1.25 -0.26,0.12 -0.93,0.18 -1.15,0.3 0,0 -0.56,-0.72 -1,-0.77 -0.44,-0.05 -0.71,0 -0.79,0.19 0,0 -0.77,0.32 -0.83,1 h 0.27 a 0.77,0.77 0 0 1 0.56,-0.29 0.68,0.68 0 0 0 0.11,0.24 6,6 0 0 1 1.66,0.2 4,4 0 0 1 1.37,0.69 3.51,3.51 0 0 1 0.75,0.83 0.67,0.67 0 0 1 0,-0.2 c 0,0 0.58,-0.07 0.71,-0.47 0.13,-0.4 0.32,-1.09 0.32,-1.09 a 0.83,0.83 0 0 0 0.8,0.31 c 0,0 0.55,0 0.51,0.65 0,0 0.54,-1.11 0,-1.49 0,0 0.21,-0.32 0.07,-0.55 a 3.44,3.44 0 0 0 -0.63,-0.6 0.7,0.7 0 0 1 0.68,0.1 2.76,2.76 0 0 0 -0.6,-1.2 0.63,0.63 0 0 1 0.66,-0.2 4.85,4.85 0 0 0 -1.18,-1.48 0.67,0.67 0 0 1 0.62,-0.18 2.43,2.43 0 0 0 -1.81,-1.29 c -1.4,-0.28 -3,0.72 -3.46,0.9 a 6.47,6.47 0 0 1 -3.53,-0.15 9.91,9.91 0 0 1 -2.24,-1.7 c 0,0 1.92,0.21 2.73,0.34 a 11,11 0 0 0 4,-0.18"
         id="path13" /><path
         class="cls-4"
         d="m 34.39,20 a 2,2 0 0 0 -1.91,0 1.89,1.89 0 0 1 0.69,0.18 14.19,14.19 0 0 1 -4.75,0.38 c -1.17,-0.24 -1.19,-1.14 -0.5,-1.83 0.69,-0.69 2.72,-1 4,-1.13 a 4.21,4.21 0 0 1 0.5,0 l -1.49,-1.31 a 5.3,5.3 0 0 1 -0.91,0.12 6.11,6.11 0 0 0 -3.78,1.48 v 3 a 3.71,3.71 0 0 0 2.4,1.22 22.94,22.94 0 0 0 4.54,-0.42 c 0.65,-0.14 2.07,-0.38 3.24,-0.56 L 34.58,19.5 a 1.89,1.89 0 0 0 -0.2,0.5"
         id="path14" /><path
         class="cls-4"
         d="m 38.48,19.89 v 0.88 L 39.4,20.6 v 0 a 5.69,5.69 0 0 1 -0.89,-0.69"
         id="path15" /><path
         class="cls-4"
         d="m 37,16.66 v -1 a 2.06,2.06 0 0 0 -0.74,0.18 l -0.42,0.21 1.19,1.07 a 3.44,3.44 0 0 1 0,-0.46"
         id="path16" /><path
         class="cls-4"
         d="m 49.32,17.39 a 0.9,0.9 0 0 1 0.17,-0.38 1.69,1.69 0 0 0 -0.86,0.94 l 0.12,-0.07 a 2.11,2.11 0 0 0 0.57,-0.49"
         id="path17" /><path
         class="cls-3"
         d="m 14.91,31.48 a 3.12,3.12 0 0 1 2.3,0.78 3,3 0 0 1 0.79,2.2 3,3 0 0 1 -0.79,2.2 3.09,3.09 0 0 1 -2.3,0.79 h -3.09 v 4.12 H 10.48 V 31.48 Z m -0.46,4.83 a 2.43,2.43 0 0 0 1.68,-0.46 1.8,1.8 0 0 0 0.53,-1.39 1.78,1.78 0 0 0 -0.53,-1.38 2.48,2.48 0 0 0 -1.68,-0.47 h -2.63 v 3.7 z"
         id="path18" /><path
         class="cls-3"
         d="m 23.26,31.48 a 3.36,3.36 0 0 1 2.26,0.7 2.46,2.46 0 0 1 0.81,1.94 3,3 0 0 1 -0.42,1.61 2.16,2.16 0 0 1 -1.33,1 v 0 a 1.85,1.85 0 0 1 0.71,0.28 1.64,1.64 0 0 1 0.44,0.47 2.42,2.42 0 0 1 0.24,0.62 c 0.05,0.23 0.09,0.46 0.12,0.71 0.03,0.25 0,0.49 0,0.75 0,0.26 0,0.5 0.07,0.75 a 5.47,5.47 0 0 0 0.16,0.7 1.73,1.73 0 0 0 0.32,0.58 h -1.5 a 0.91,0.91 0 0 1 -0.19,-0.42 5.07,5.07 0 0 1 -0.06,-0.6 c 0,-0.23 0,-0.46 0,-0.72 A 4.8,4.8 0 0 0 24.8,39.1 5.42,5.42 0 0 0 24.66,38.4 1.61,1.61 0 0 0 24.4,37.82 1.46,1.46 0 0 0 23.91,37.43 1.74,1.74 0 0 0 23.12,37.28 h -3.27 v 4.31 H 18.51 V 31.48 Z m 0.28,4.58 a 1.87,1.87 0 0 0 0.74,-0.28 1.42,1.42 0 0 0 0.51,-0.55 2.11,2.11 0 0 0 -0.23,-2.14 1.74,1.74 0 0 0 -1.37,-0.48 h -3.34 v 3.52 h 2.8 a 5.1,5.1 0 0 0 0.89,-0.07"
         id="path19" /><polygon
         class="cls-3"
         points="33.93,35.82 33.93,36.95 28.69,36.95 28.69,40.44 34.36,40.44 34.36,41.57 27.35,41.57 27.35,31.48 34.32,31.48 34.32,32.61 28.69,32.61 28.69,35.82 "
         id="polygon19" /><path
         class="cls-3"
         d="m 41,32.85 a 2.89,2.89 0 0 0 -1.72,-0.48 3.83,3.83 0 0 0 -0.83,0.08 2.27,2.27 0 0 0 -0.73,0.28 1.62,1.62 0 0 0 -0.51,0.53 1.64,1.64 0 0 0 -0.19,0.83 1.07,1.07 0 0 0 0.27,0.76 2.09,2.09 0 0 0 0.74,0.47 6.13,6.13 0 0 0 1,0.31 c 0.38,0.08 0.78,0.16 1.18,0.26 a 12.15,12.15 0 0 1 1.18,0.33 3.9,3.9 0 0 1 1,0.52 2.3,2.3 0 0 1 0.73,0.82 2.45,2.45 0 0 1 0.28,1.24 2.53,2.53 0 0 1 -0.36,1.38 3,3 0 0 1 -0.93,0.93 3.81,3.81 0 0 1 -1.26,0.52 6.07,6.07 0 0 1 -1.39,0.17 5.64,5.64 0 0 1 -1.46,-0.22 4,4 0 0 1 -1.33,-0.64 3,3 0 0 1 -0.9,-1.1 3.58,3.58 0 0 1 -0.33,-1.59 h 1.27 a 2.12,2.12 0 0 0 0.9,1.85 2.55,2.55 0 0 0 0.94,0.44 4.42,4.42 0 0 0 1.1,0.14 5.69,5.69 0 0 0 0.91,-0.08 3,3 0 0 0 0.83,-0.29 1.76,1.76 0 0 0 0.59,-0.56 1.68,1.68 0 0 0 0.23,-0.91 1.25,1.25 0 0 0 -0.31,-0.84 2.15,2.15 0 0 0 -0.73,-0.53 6.69,6.69 0 0 0 -1,-0.33 L 39,36.87 c -0.41,-0.09 -0.8,-0.19 -1.18,-0.31 a 4,4 0 0 1 -1,-0.47 2.06,2.06 0 0 1 -1,-1.9 A 2.61,2.61 0 0 1 36.86,32 3.7,3.7 0 0 1 38,31.41 5,5 0 0 1 39.35,31.24 5.51,5.51 0 0 1 40.79,31.42 3.38,3.38 0 0 1 42,32 a 2.79,2.79 0 0 1 0.79,1 3.59,3.59 0 0 1 0.32,1.43 H 41.82 A 2.1,2.1 0 0 0 41,32.85"
         id="path20" /><path
         class="cls-3"
         d="m 50.2,32.85 a 2.89,2.89 0 0 0 -1.72,-0.48 3.83,3.83 0 0 0 -0.83,0.08 2.36,2.36 0 0 0 -0.73,0.28 1.62,1.62 0 0 0 -0.51,0.53 1.64,1.64 0 0 0 -0.19,0.83 1,1 0 0 0 0.28,0.76 2,2 0 0 0 0.73,0.47 6.73,6.73 0 0 0 1,0.31 c 0.39,0.08 0.78,0.16 1.18,0.26 a 12.15,12.15 0 0 1 1.18,0.33 3.9,3.9 0 0 1 1,0.52 2.43,2.43 0 0 1 0.74,0.82 2.9,2.9 0 0 1 -0.09,2.62 3,3 0 0 1 -0.92,0.93 3.87,3.87 0 0 1 -1.27,0.52 6.07,6.07 0 0 1 -1.39,0.17 5.64,5.64 0 0 1 -1.61,-0.22 4,4 0 0 1 -1.33,-0.64 3,3 0 0 1 -0.9,-1.1 3.58,3.58 0 0 1 -0.33,-1.59 h 1.27 a 2.26,2.26 0 0 0 0.25,1.1 2.24,2.24 0 0 0 0.65,0.75 2.63,2.63 0 0 0 0.94,0.44 4.48,4.48 0 0 0 1.1,0.14 5.59,5.59 0 0 0 0.91,-0.08 3,3 0 0 0 0.83,-0.29 1.76,1.76 0 0 0 0.59,-0.56 1.68,1.68 0 0 0 0.23,-0.91 1.25,1.25 0 0 0 -0.28,-0.85 2.06,2.06 0 0 0 -0.73,-0.53 6.37,6.37 0 0 0 -1,-0.33 l -1.18,-0.26 c -0.4,-0.09 -0.8,-0.19 -1.18,-0.31 a 4,4 0 0 1 -1,-0.47 2.06,2.06 0 0 1 -1,-1.9 A 2.61,2.61 0 0 1 46,32 a 3.7,3.7 0 0 1 1.17,-0.54 5.1,5.1 0 0 1 1.35,-0.17 5.46,5.46 0 0 1 1.44,0.18 3.29,3.29 0 0 1 1.17,0.58 2.79,2.79 0 0 1 0.79,1 3.59,3.59 0 0 1 0.32,1.43 H 51 A 2.1,2.1 0 0 0 50.22,32.9"
         id="path21" /><polygon
         class="cls-3"
         points="12.68,21.06 10.48,21.06 10.48,7.77 12.68,7.77 12.68,13.14 23.32,13.14 23.32,7.77 25.53,7.77 25.53,21.06 23.32,21.06 23.32,15.13 12.68,15.13 "
         id="polygon21" /><polygon
         class="cls-3"
         points="25.53,21.06 23.32,21.06 23.32,7.77 25.53,7.77 25.53,14.66 34.83,7.77 37.76,7.77 31.22,12.8 37.76,18.71 37.76,21.3 29.55,14.08 25.53,17.2 "
         id="polygon22" /><path
         class="cls-3"
         d="m 52.63,16.66 a 3.8,3.8 0 0 1 -2,3.32 9.82,9.82 0 0 1 -5.42,1.32 10,10 0 0 1 -5.45,-1.3 3.84,3.84 0 0 1 -2,-3.32 V 7.77 h 2.18 v 8.36 a 2.6,2.6 0 0 0 1.35,2.36 7.62,7.62 0 0 0 3.93,0.82 7.5,7.5 0 0 0 3.9,-0.82 2.61,2.61 0 0 0 1.34,-2.36 V 7.77 h 2.17 z"
         id="path22" /></g></g></svg>
