<?xml version="1.0" encoding="UTF-8" standalone="no"?>
<!DOCTYPE svg PUBLIC "-//W3C//DTD SVG 1.1//EN" "http://www.w3.org/Graphics/SVG/1.1/DTD/svg11.dtd">
<svg xmlns="http://www.w3.org/2000/svg" version="1.1" viewBox="0.00 0.00 582.00 113.00">
<path fill="#1fb1c2" d="
  M 218.69 3.70
  L 218.66 69.89
  Q 212.36 72.80 204.94 73.14
  L 205.02 56.40
  Q 205.02 56.28 204.95 56.17
  L 204.82 55.95
  Q 210.53 54.52 211.59 48.36
  Q 213.44 37.55 211.87 26.75
  Q 211.24 22.49 209.67 20.60
  C 206.74 17.08 201.64 17.12 197.41 17.79
  L 196.99 0.55
  Q 208.21 -0.67 218.69 3.70
  Z"
/>
<path fill="#d80468" d="
  M 475.13 72.83
  L 474.91 56.46
  Q 474.91 56.13 475.23 56.16
  Q 475.48 56.18 475.36 55.97
  Q 475.28 55.82 475.13 55.72
  Q 474.22 55.12 474.27 54.31
  Q 478.86 56.90 483.97 56.14
  C 488.97 55.40 491.49 52.55 492.24 47.69
  Q 493.67 38.31 492.53 27.60
  C 491.86 21.34 489.43 17.76 482.55 17.45
  C 477.59 17.23 473.61 18.39 471.45 23.37
  L 470.89 3.40
  Q 470.88 2.91 470.39 2.87
  Q 470.08 2.85 469.81 3.13
  Q 469.27 3.68 469.26 2.90
  Q 469.26 2.48 469.59 1.76
  Q 479.58 -0.70 490.01 0.98
  Q 508.83 4.01 512.51 22.76
  Q 514.75 34.12 513.24 46.68
  C 511.64 59.99 505.50 69.61 491.77 72.30
  Q 483.44 73.93 475.13 72.83
  Z"
/>
<path fill="#04cacf" d="
  M 196.99 0.55
  L 197.41 17.79
  Q 192.18 18.89 190.98 23.98
  Q 189.07 32.08 190.07 44.01
  Q 190.40 47.91 191.62 51.11
  C 193.53 56.13 199.93 56.89 204.82 55.95
  L 204.95 56.17
  Q 205.02 56.28 205.02 56.40
  L 204.94 73.14
  C 188.48 74.32 174.36 69.04 170.53 51.50
  Q 166.97 35.15 171.12 19.46
  C 174.36 7.17 184.79 1.00 196.99 0.55
  Z"
/>
<rect fill="#002c49" x="0.99" y="1.50" width="20.26" height="70.50" rx="0.34"/>
<path fill="#00334f" d="
  M 73.93 37.50
  Q 74.72 37.41 73.65 38.11
  Q 73.52 38.19 73.49 38.34
  Q 73.45 38.55 73.66 38.64
  A 0.38 0.38 0.0 0 1 73.89 38.99
  Q 73.88 52.12 73.86 64.96
  Q 73.86 65.34 73.60 65.06
  Q 73.49 64.95 73.33 65.00
  Q 73.22 65.03 73.20 65.14
  L 73.08 65.78
  L 50.16 33.94
  Q 49.93 33.63 49.93 34.02
  L 50.03 71.36
  Q 50.03 72.00 49.39 72.00
  L 32.88 72.00
  Q 32.25 72.00 32.25 71.38
  L 32.25 2.00
  Q 32.25 1.50 32.75 1.50
  L 47.76 1.50
  Q 48.94 1.50 49.61 2.46
  L 73.93 37.50
  Z"
/>
<path fill="#004861" d="
  M 73.08 65.78
  L 73.20 65.14
  Q 73.22 65.03 73.33 65.00
  Q 73.49 64.95 73.60 65.06
  Q 73.86 65.34 73.86 64.96
  Q 73.88 52.12 73.89 38.99
  A 0.38 0.38 0.0 0 0 73.66 38.64
  Q 73.45 38.55 73.49 38.34
  Q 73.52 38.19 73.65 38.11
  Q 74.72 37.41 73.93 37.50
  L 73.82 2.13
  Q 73.82 1.49 74.46 1.49
  L 90.76 1.52
  Q 91.49 1.52 91.49 2.26
  L 91.50 71.50
  Q 91.50 72.00 91.00 72.00
  L 78.19 72.00
  Q 77.60 72.00 77.24 71.52
  L 73.08 65.78
  Z"
/>
<path fill="#005e73" d="
  M 121.27 5.95
  Q 120.93 8.61 120.56 11.01
  C 120.44 11.78 120.75 12.32 120.77 12.99
  Q 121.09 23.31 120.14 34.52
  Q 119.95 34.17 119.78 33.99
  Q 119.25 33.40 119.25 34.19
  L 119.25 71.75
  A 0.25 0.25 0.0 0 1 119.00 72.00
  L 102.25 72.00
  Q 101.75 72.00 101.75 71.50
  L 101.75 2.00
  Q 101.75 1.50 102.25 1.50
  L 117.58 1.50
  Q 118.18 1.50 118.53 2.00
  L 121.27 5.95
  Z"
/>
<path fill="#0096a2" d="
  M 143.49 67.04
  L 143.64 37.05
  L 143.26 1.78
  A 0.27 0.26 -1.0 0 1 143.53 1.51
  L 160.50 1.50
  A 0.25 0.25 0.0 0 1 160.75 1.75
  L 160.75 71.50
  A 0.50 0.50 0.0 0 1 160.25 72.00
  L 147.50 72.00
  Q 147.00 72.00 146.71 71.59
  L 143.49 67.04
  Z"
/>
<path fill="#2ea3bb" d="
  M 239.70 1.55
  Q 240.51 3.05 240.28 4.53
  Q 240.21 5.01 240.40 5.46
  Q 240.96 6.77 240.98 8.25
  Q 241.11 18.00 241.68 27.70
  L 233.22 2.09
  Q 233.03 1.52 233.63 1.53
  L 239.70 1.55
  Z"
/>
<path fill="#4c87ac" d="
  M 239.70 1.55
  L 254.38 1.59
  Q 254.89 1.59 255.02 2.08
  L 267.86 51.54
  L 267.87 71.96
  L 256.83 71.93
  Q 256.32 71.93 256.16 71.45
  L 241.68 27.70
  Q 241.11 18.00 240.98 8.25
  Q 240.96 6.77 240.40 5.46
  Q 240.21 5.01 240.28 4.53
  Q 240.51 3.05 239.70 1.55
  Z"
/>
<path fill="#6471a1" d="
  M 291.10 1.54
  L 291.10 33.24
  L 278.40 71.65
  A 0.48 0.47 -80.6 0 1 277.95 71.98
  L 267.87 71.96
  L 267.86 51.54
  L 280.92 2.05
  Q 281.05 1.56 281.56 1.55
  L 291.10 1.54
  Z"
/>
<path fill="#7b5c96" d="
  M 291.10 1.54
  L 301.17 1.55
  A 0.31 0.31 0.0 0 1 301.46 1.95
  L 291.10 33.24
  L 291.10 1.54
  Z"
/>
<path fill="#845391" d="
  M 331.31 1.55
  L 330.87 27.60
  Q 330.86 28.05 330.42 28.12
  L 329.74 28.23
  L 328.43 22.52
  Q 328.17 21.34 327.86 22.51
  L 315.70 69.82
  Q 314.88 69.02 314.88 68.00
  Q 314.88 39.00 314.88 9.75
  A 0.28 0.27 70.4 0 0 314.43 9.53
  Q 314.35 9.59 314.26 9.85
  Q 314.20 10.04 314.02 9.96
  Q 313.92 9.91 313.82 9.79
  L 316.44 2.10
  Q 316.61 1.61 317.13 1.61
  L 331.31 1.55
  Z"
/>
<path fill="#90478b" d="
  M 331.31 1.55
  L 338.19 1.59
  A 0.64 0.63 80.3 0 1 338.79 2.02
  L 361.77 71.56
  A 0.34 0.34 0.0 0 1 361.45 72.00
  L 341.54 72.00
  Q 341.33 72.00 341.27 71.80
  L 329.74 28.23
  L 330.42 28.12
  Q 330.86 28.05 330.87 27.60
  L 331.31 1.55
  Z"
/>
<path fill="#ae2b7d" d="
  M 395.75 19.09
  L 395.75 71.66
  A 0.34 0.34 0.0 0 1 395.41 72.00
  L 376.09 72.00
  A 0.34 0.34 0.0 0 1 375.75 71.66
  L 375.75 19.09
  A 0.34 0.34 0.0 0 0 375.41 18.75
  L 358.57 18.75
  A 0.34 0.34 0.0 0 1 358.23 18.40
  L 358.58 1.83
  A 0.34 0.34 0.0 0 1 358.92 1.50
  L 412.66 1.50
  A 0.34 0.34 0.0 0 1 413.00 1.83
  L 413.33 18.40
  A 0.34 0.34 0.0 0 1 412.99 18.75
  L 396.09 18.75
  A 0.34 0.34 0.0 0 0 395.75 19.09
  Z"
/>
<rect fill="#c01b74" x="420.26" y="1.50" width="20.24" height="70.50" rx="0.39"/>
<path fill="#d80468" d="
  M 563.60 37.27
  L 563.45 2.15
  Q 563.45 1.50 564.10 1.50
  L 580.50 1.50
  Q 581.00 1.50 581.00 2.00
  L 581.00 71.50
  Q 581.00 72.00 580.50 72.00
  L 567.95 72.00
  Q 567.22 72.00 566.80 71.41
  L 539.86 34.01
  Q 539.60 33.64 539.60 34.09
  L 539.81 71.34
  Q 539.82 72.00 539.16 72.00
  L 522.50 72.00
  Q 522.00 72.00 522.00 71.50
  L 522.00 2.00
  Q 522.00 1.50 522.50 1.50
  L 538.00 1.50
  A 1.01 1.00 72.4 0 1 538.82 1.93
  L 563.42 37.32
  Q 563.60 37.59 563.60 37.27
  Z"
/>
<path fill="#c01b74" d="
  M 469.59 1.76
  Q 469.26 2.48 469.26 2.90
  Q 469.27 3.68 469.81 3.13
  Q 470.08 2.85 470.39 2.87
  Q 470.88 2.91 470.89 3.40
  L 471.45 23.37
  Q 469.20 35.02 470.91 47.26
  Q 471.49 51.37 474.27 54.31
  Q 474.22 55.12 475.13 55.72
  Q 475.28 55.82 475.36 55.97
  Q 475.48 56.18 475.23 56.16
  Q 474.91 56.13 474.91 56.46
  L 475.13 72.83
  Q 462.11 71.66 455.51 62.24
  C 449.88 54.20 449.07 42.77 449.43 32.73
  C 449.93 18.80 454.65 5.55 469.59 1.76
  Z"
/>
<path fill="#2ea3bb" d="
  M 218.69 3.70
  C 228.56 8.90 232.08 18.58 233.09 29.12
  Q 234.13 39.97 232.21 50.22
  C 230.65 58.57 226.62 66.04 218.66 69.89
  L 218.69 3.70
  Z"
/>
<path fill="#007b8b" d="
  M 121.27 5.95
  Q 131.92 21.09 142.32 36.21
  Q 143.52 37.96 143.64 37.05
  L 143.49 67.04
  L 120.14 34.52
  Q 121.09 23.31 120.77 12.99
  C 120.75 12.32 120.44 11.78 120.56 11.01
  Q 120.93 8.61 121.27 5.95
  Z"
/>
<path fill="#7b5c96" d="
  M 315.70 69.82
  L 315.31 71.42
  Q 315.17 72.00 314.57 72.00
  L 293.75 72.00
  A 0.31 0.30 -80.8 0 1 293.47 71.60
  L 313.82 9.79
  Q 313.92 9.91 314.02 9.96
  Q 314.20 10.04 314.26 9.85
  Q 314.35 9.59 314.43 9.53
  A 0.28 0.27 70.4 0 1 314.88 9.75
  Q 314.88 39.00 314.88 68.00
  Q 314.88 69.02 315.70 69.82
  Z"
/>
<path fill="#333333" d="
  M 177.85 89.78
  C 175.67 91.82 176.95 94.43 179.41 95.37
  C 184.28 97.25 190.13 98.22 189.20 105.19
  C 188.14 113.10 178.52 112.64 173.19 109.87
  Q 173.02 109.77 173.02 109.58
  Q 173.07 107.96 173.56 106.42
  A 0.12 0.11 24.2 0 1 173.73 106.36
  C 176.53 108.01 183.31 109.89 185.22 106.06
  Q 186.64 103.21 184.23 101.49
  C 179.90 98.40 171.93 98.98 173.31 90.95
  C 174.48 84.11 182.60 84.57 187.73 86.17
  A 0.90 0.90 0.0 0 1 188.36 87.04
  Q 188.34 88.24 187.95 89.33
  Q 187.74 89.92 187.17 89.66
  C 184.86 88.64 180.01 87.74 177.85 89.78
  Z"
/>
<path fill="#333333" d="
  M 470.4439 101.9995
  A 9.68 9.68 0.0 0 1 460.7470 111.6626
  L 457.7870 111.6574
  A 9.68 9.68 0.0 0 1 448.1239 101.9605
  L 448.1361 94.9405
  A 9.68 9.68 0.0 0 1 457.8330 85.2774
  L 460.7930 85.2826
  A 9.68 9.68 0.0 0 1 470.4561 94.9795
  L 470.4439 101.9995
  Z
  M 464.3657 95.1388
  A 4.56 4.56 0.0 0 0 459.8137 90.5708
  L 458.8937 90.5692
  A 4.56 4.56 0.0 0 0 454.3257 95.1212
  L 454.3143 101.6612
  A 4.56 4.56 0.0 0 0 458.8663 106.2292
  L 459.7863 106.2308
  A 4.56 4.56 0.0 0 0 464.3543 101.6788
  L 464.3657 95.1388
  Z"
/>
<path fill="#333333" d="
  M 4.25 92.70
  L 4.25 111.00
  A 0.25 0.25 0.0 0 1 4.00 111.25
  L 1.25 111.25
  A 0.25 0.25 0.0 0 1 1.00 111.00
  L 1.00 86.25
  Q 1.00 85.49 1.75 85.50
  L 3.79 85.50
  Q 4.20 85.51 4.44 85.85
  L 16.47 103.84
  Q 16.78 104.30 16.78 103.74
  L 16.74 85.76
  Q 16.74 85.50 16.99 85.50
  L 20.00 85.51
  A 0.25 0.24 0.0 0 1 20.25 85.75
  L 20.25 110.75
  Q 20.25 111.25 19.75 111.25
  L 18.02 111.25
  Q 17.50 111.24 17.20 110.81
  L 4.69 92.56
  Q 4.25 91.91 4.25 92.70
  Z"
/>
<path fill="#333333" d="
  M 61.24 89.36
  L 61.25 95.89
  A 0.36 0.36 0.0 0 0 61.61 96.25
  L 71.40 96.25
  A 0.36 0.36 0.0 0 1 71.76 96.61
  L 71.75 99.14
  A 0.36 0.36 0.0 0 1 71.39 99.50
  L 61.61 99.50
  A 0.36 0.36 0.0 0 0 61.25 99.86
  L 61.24 107.39
  A 0.36 0.36 0.0 0 0 61.60 107.75
  L 73.63 107.75
  A 0.36 0.36 0.0 0 1 73.99 108.11
  L 74.00 110.89
  A 0.36 0.36 0.0 0 1 73.64 111.25
  L 57.86 111.25
  A 0.36 0.36 0.0 0 1 57.50 110.89
  L 57.50 85.86
  A 0.36 0.36 0.0 0 1 57.86 85.50
  L 73.13 85.50
  A 0.36 0.36 0.0 0 1 73.49 85.86
  L 73.52 88.64
  A 0.36 0.36 0.0 0 1 73.16 89.00
  L 61.60 89.00
  A 0.36 0.36 0.0 0 0 61.24 89.36
  Z"
/>
<path fill="#333333" d="
  M 116.30 106.00
  Q 116.55 107.17 116.83 106.01
  L 121.56 86.14
  Q 121.71 85.49 122.38 85.50
  L 125.08 85.51
  Q 125.76 85.51 125.91 86.17
  L 130.78 106.49
  Q 130.92 107.07 131.04 106.49
  L 135.51 85.72
  A 0.27 0.26 5.2 0 1 135.77 85.51
  L 139.02 85.50
  Q 139.30 85.50 139.23 85.77
  L 133.28 110.47
  Q 133.09 111.26 132.28 111.26
  L 129.21 111.25
  Q 128.66 111.25 128.53 110.71
  L 123.80 90.48
  A 0.17 0.17 0.0 0 0 123.47 90.48
  L 118.84 110.66
  Q 118.71 111.25 118.10 111.25
  L 114.79 111.25
  Q 114.25 111.25 114.12 110.72
  L 108.08 85.73
  Q 108.02 85.48 108.27 85.48
  L 111.72 85.51
  Q 111.93 85.51 111.97 85.71
  L 116.30 106.00
  Z"
/>
<path fill="#333333" d="
  M 239.25 99.66
  L 239.25 85.75
  Q 239.25 85.50 239.50 85.50
  L 244.25 85.50
  Q 244.50 85.50 244.50 85.75
  L 244.50 110.62
  Q 244.50 111.25 243.88 111.25
  L 241.13 111.25
  Q 240.40 111.25 239.98 110.65
  L 229.80 96.27
  Q 229.25 95.51 229.25 96.45
  L 229.25 111.00
  A 0.25 0.25 0.0 0 1 229.00 111.25
  L 224.25 111.25
  Q 224.00 111.25 224.00 111.00
  L 224.00 86.13
  Q 224.00 85.50 224.62 85.50
  L 228.45 85.50
  A 0.97 0.97 0.0 0 1 229.25 85.92
  L 238.81 99.80
  Q 239.25 100.44 239.25 99.66
  Z"
/>
<path fill="#333333" d="
  M 286.25 91.32
  L 286.25 95.43
  A 0.32 0.32 0.0 0 0 286.57 95.75
  L 295.18 95.75
  A 0.32 0.32 0.0 0 1 295.50 96.07
  L 295.50 100.18
  A 0.32 0.32 0.0 0 1 295.18 100.50
  L 286.58 100.50
  A 0.32 0.32 0.0 0 0 286.26 100.82
  L 286.24 105.68
  A 0.32 0.32 0.0 0 0 286.56 106.00
  L 297.43 106.00
  A 0.32 0.32 0.0 0 1 297.75 106.32
  L 297.75 110.93
  A 0.32 0.32 0.0 0 1 297.43 111.25
  L 280.57 111.25
  A 0.32 0.32 0.0 0 1 280.25 110.93
  L 280.25 85.82
  A 0.32 0.32 0.0 0 1 280.57 85.50
  L 296.93 85.50
  A 0.32 0.32 0.0 0 1 297.25 85.82
  L 297.25 90.68
  A 0.32 0.32 0.0 0 1 296.93 91.00
  L 286.57 91.00
  A 0.32 0.32 0.0 0 0 286.25 91.32
  Z"
/>
<path fill="#333333" d="
  M 336.64 91.00
  L 330.59 91.00
  A 0.36 0.36 0.0 0 1 330.23 90.64
  L 330.29 85.86
  A 0.36 0.36 0.0 0 1 330.65 85.50
  L 349.38 85.50
  A 0.36 0.36 0.0 0 1 349.74 85.86
  L 349.77 90.64
  A 0.36 0.36 0.0 0 1 349.41 91.00
  L 343.36 91.00
  A 0.36 0.36 0.0 0 0 343.00 91.36
  L 343.00 110.89
  A 0.36 0.36 0.0 0 1 342.64 111.25
  L 337.36 111.25
  A 0.36 0.36 0.0 0 1 337.00 110.89
  L 337.00 91.36
  A 0.36 0.36 0.0 0 0 336.64 91.00
  Z"
/>
<path fill="#333333" d="
  M 406.53 103.27
  Q 407.72 94.85 409.71 85.73
  A 0.32 0.31 -82.8 0 1 410.01 85.49
  L 415.39 85.52
  Q 415.62 85.52 415.57 85.75
  L 409.74 110.48
  A 1.00 1.00 0.0 0 1 408.77 111.25
  L 403.24 111.25
  Q 402.52 111.25 402.38 110.55
  L 399.14 94.20
  Q 398.75 92.23 398.37 94.20
  L 395.12 110.77
  A 0.59 0.59 0.0 0 1 394.54 111.25
  L 388.48 111.25
  A 0.63 0.62 -7.1 0 1 387.87 110.78
  L 381.99 85.80
  A 0.24 0.24 0.0 0 1 382.22 85.50
  L 387.81 85.50
  Q 388.13 85.50 388.19 85.82
  L 391.36 103.00
  Q 391.69 104.78 392.06 103.00
  L 395.59 86.02
  Q 395.70 85.50 396.23 85.50
  L 401.53 85.50
  Q 402.07 85.50 402.18 86.03
  L 405.83 103.29
  Q 406.25 105.29 406.53 103.27
  Z"
/>
<path fill="#333333" d="
  M 511.25 102.38
  L 511.25 111.00
  Q 511.25 111.25 511.00 111.25
  L 505.50 111.25
  A 0.25 0.25 0.0 0 1 505.25 111.00
  L 505.25 86.18
  Q 505.25 85.53 505.90 85.52
  Q 510.38 85.41 515.82 85.60
  C 521.49 85.81 524.75 88.65 524.25 94.62
  Q 523.90 98.86 520.64 100.44
  Q 520.18 100.67 520.43 101.12
  L 525.98 111.01
  A 0.15 0.15 0.0 0 1 525.85 111.23
  L 519.53 111.26
  A 0.69 0.69 0.0 0 1 518.89 110.86
  L 514.86 102.24
  Q 514.63 101.74 514.08 101.74
  L 511.87 101.76
  Q 511.25 101.76 511.25 102.38
  Z
  M 511.24 90.86
  L 511.26 96.94
  A 0.32 0.32 0.0 0 0 511.58 97.26
  L 515.14 97.25
  A 2.88 2.43 -0.2 0 0 518.01 94.81
  L 518.01 92.95
  A 2.88 2.43 -0.2 0 0 515.12 90.53
  L 511.56 90.54
  A 0.32 0.32 0.0 0 0 511.24 90.86
  Z"
/>
<path fill="#333333" d="
  M 565.25 100.81
  L 565.25 110.95
  A 0.30 0.30 0.0 0 1 564.95 111.25
  L 559.80 111.24
  A 0.30 0.30 0.0 0 1 559.50 110.94
  L 559.50 85.80
  A 0.30 0.30 0.0 0 1 559.80 85.50
  L 564.95 85.50
  A 0.30 0.30 0.0 0 1 565.25 85.80
  L 565.25 95.44
  A 0.30 0.30 0.0 0 0 565.55 95.74
  L 567.60 95.75
  A 0.30 0.30 0.0 0 0 567.86 95.61
  L 573.94 85.63
  A 0.30 0.30 0.0 0 1 574.20 85.49
  L 580.38 85.52
  A 0.30 0.30 0.0 0 1 580.63 85.98
  L 573.32 97.59
  A 0.30 0.30 0.0 0 0 573.31 97.91
  L 580.94 110.65
  A 0.30 0.30 0.0 0 1 580.69 111.10
  L 574.25 111.25
  A 0.30 0.30 0.0 0 1 573.98 111.10
  L 567.83 100.63
  A 0.30 0.30 0.0 0 0 567.57 100.48
  L 565.55 100.51
  A 0.30 0.30 0.0 0 0 565.25 100.81
  Z"
/>
</svg>
