<?xml version="1.0" encoding="UTF-8" standalone="no"?>
<svg
   width="121.99391"
   height="67.117012"
   version="1.1"
   id="svg13"
   sodipodi:docname="IOP.svg"
   inkscape:version="1.2.2 (b0a8486, 2022-12-01)"
   inkscape:export-filename="IOP.svg"
   inkscape:export-xdpi="86.175926"
   inkscape:export-ydpi="86.175926"
   xmlns:inkscape="http://www.inkscape.org/namespaces/inkscape"
   xmlns:sodipodi="http://sodipodi.sourceforge.net/DTD/sodipodi-0.dtd"
   xmlns="http://www.w3.org/2000/svg"
   xmlns:svg="http://www.w3.org/2000/svg">
  <defs
     id="defs17" />
  <sodipodi:namedview
     id="namedview15"
     pagecolor="#ffffff"
     bordercolor="#000000"
     borderopacity="0.25"
     inkscape:showpageshadow="2"
     inkscape:pageopacity="0.0"
     inkscape:pagecheckerboard="0"
     inkscape:deskcolor="#d1d1d1"
     showgrid="false"
     inkscape:zoom="2.0766667"
     inkscape:cx="16.853933"
     inkscape:cy="70.545746"
     inkscape:window-width="1883"
     inkscape:window-height="1027"
     inkscape:window-x="1680"
     inkscape:window-y="25"
     inkscape:window-maximized="1"
     inkscape:current-layer="svg13" />
  <path
     d="M 5.7784912,9.8492777 H 20.578492 V 57.749278 H 5.7784912 Z M 48.478492,58.449278 c -14.4,0 -22.8,-10.8 -22.8,-24.6 0,-14.1 8.3,-24.7000003 23,-24.7000003 14.4,0 22.6,10.3000003 22.6,24.2000003 0,13.8 -8.1,25.1 -22.8,25.1 m 0.2,-38.5 c -6.6,0 -7.3,9.5 -7.3,14.2 0,4.7 0.5,13.4 7,13.4 6.9,0 7,-8.8 7,-13.6 v -0.5 c 0,-4.8 0,-13.5 -6.7,-13.5 m 51,20.4 h -8.3 v 17.4 h -14.9 V 9.8492777 h 20.5 c 5.199998,0 10.799998,0.4000003 14.899998,3.8000003 3.5,2.9 5.3,7 5.3,11.5 0,10.1 -8.1,15.2 -17.499998,15.2 m -3.2,-19.5 h -5.4 v 9.3 h 4.9 c 3.4,0 6.499998,-0.7 6.499998,-4.7 0,-3.8 -2.799998,-4.6 -5.999998,-4.6"
     fill="#e60012"
     id="path9" />
</svg>
