<?xml version="1.0" encoding="UTF-8"?>
<svg xmlns="http://www.w3.org/2000/svg" xmlns:xlink="http://www.w3.org/1999/xlink" width="255" height="33">
  <defs>
    <path id="a" d="M.70013514.42989189H65.7368919V22.2437838H.70013514z"/>
    <path id="c" d="M.05351351.10613514H253.712027V32.9464865H.05351351z"/>
  </defs>
  <g fill="none" fill-rule="evenodd">
    <g transform="translate(115.054054 10.702703)">
      <mask id="b" fill="#fff">
        <use xlink:href="#a"/>
      </mask>
      <path fill="#50504D" d="M3.60948649 7.14048649c0-1.83016217 0-1.83016217-1.31375676-2.11110811-.56278378-.09454054-.7037027-.28183784-.7037027-.65732433 0-.28183783.09364865-.42186486.42186486-.56278378 1.5955946-.84462162 2.44021622-1.45467568 3.51940541-2.76843243.37548648-.5164054.5164054-.61094595.75097297-.61094595.42186487 0 .61005405.28183784.61005405.93916216 0 .28183784 0 .09364865-.18818918 1.87654054v.56367568c0 .28094595.09454054.46913514.28183783.46913514.09364865 0 .23456757-.14091892.42275676-.37548649.04637838-.04727027.09364865-.14091892.79735135-.89189189 1.36102703-1.31375676 2.53386482-1.92381081 3.70759462-1.92381081 1.4537838 0 2.4865946 1.07918919 2.4865946 2.58113513 0 1.17283784-.7037027 1.97018919-1.7828919 1.97018919-.5164054 0-.8918919-.14002703-1.5492162-.60916216-.750973-.47002703-1.17283788-.61005406-1.68924328-.61005406-1.50105406 0-2.34567568 1.40740541-2.34567568 3.98854054v8.25891894c0 2.7684324.04637838 2.8148108 2.81570271 3.0966486 1.59470265.1872973 1.87654055.2818379 1.87654055.8446217 0 .610054-.3282162.7037027-2.34656758.7037027l-1.87654054-.0472703H5.11143243c-.75097297.0472703-.93916216.0472703-2.91024324.1881892-.1872973.0463784-.46824324.0463784-.7037027.0463784-.51551352 0-.79735135-.1872973-.79735135-.5627838 0-.3282162.18818918-.4227568.84462162-.7037027 2.06472973-.7973514 2.01745946-.7037027 2.06472973-3.2375676V7.14048649" mask="url(#b)"/>
      <path fill="#50504D" d="M20.1264324 3.90291892c-1.1264594.84462162-2.0183513 2.34567567-2.0183513 3.14391892 0 .56278378.3754865.79735135 1.4082973.79735135.5164054 0 2.1583784-.04637838 3.1911892-.09364865 1.9238108-.14091892 3.613054-.32821622 4.1758378-.56278378.6100541-.28183784.9855405-.84462162.9855405-1.54921622 0-1.73562162-1.7365135-3.09664865-3.9885405-3.09664865-1.3601351 0-2.6747838.46913514-3.753973 1.36102703ZM18.719027 9.15883784c-1.5019459 0-1.5955946.14002702-1.5955946 2.11110806 0 5.0213514 2.9093514 8.2116487 7.6015946 8.2116487 1.5955946 0 2.8157027-.3754865 4.1294595-1.3137568 1.4074054-.9382702 1.361027-.9382702 1.5947027-.9382702.3291081 0 .6109459.2345675.6109459.5155135 0 .3291081-.1409189.5636757-1.1264594 1.4546757-2.2520271 2.112-4.2703784 3.0502702-6.6633243 3.0502702-3.143919 0-6.0532703-1.5483243-7.8361622-4.0349189-1.1737297-1.7365135-1.7837838-3.8948919-1.7837838-6.5232973 0-5.77143242 4.7404054-10.69824323 10.3245405-10.69824323 3.9876487 0 7.6015946 3.28483784 7.6015946 6.85062162 0 1.17283784-.3291081 1.31464865-3.0502702 1.31464865H18.719027Zm26.2314325-4.59948649.0463783 1.12645946c0 .56278378-.1872973.75097297-.5627837.75097297-.4691352 0-.7037027-.23456756-.9391622-1.03191892-.6091622-1.97108108-1.8301622-2.95662162-3.6130541-2.95662162-1.8765405 0-3.3312162 1.31375676-3.3312162 2.95662162 0 1.17283784.750973 2.01745946 2.5338649 3.003 1.3146486.70370271 2.252027 1.26648649 3.3784865 1.92381084 2.6747838 1.6419729 3.7067027 3.2375675 3.7067027 5.5368648 0 3.753973-3.0957568 6.4287568-7.4606757 6.4287568-1.7828919 0-3.9885405-.6573243-4.9268108-1.4546757-.2818378-.2345675-.4218649-.750973-.4218649-1.4074054v-2.5347567c0-.891.1400271-1.1728379.6100541-1.1728379.2809459 0 .4218648.2345676.9373784 1.4074054 1.0791891 2.4874865 2.4411081 3.6603244 4.4121891 3.6603244 2.1583784 0 3.5657838-1.4537838 3.5657838-3.6603244 0-1.6892432-.610054-2.5802432-2.5811351-3.7539729-.7973514-.3745946-2.5802432-1.5474325-3.8476216-2.392946-1.9247027-1.31375675-2.7684325-2.53386486-2.7684325-4.31675675 0-3.28483784 2.9093514-5.67778378 6.8506217-5.67778378 1.7837837 0 3.9421621.42186486 4.2231081.75097297.1881892.23456757.1881892.84462162.1881892 2.34567568v.46913513m9.3372162-.65643243c-1.1264595.84462162-2.0183514 2.34567567-2.0183514 3.14391892 0 .56278378.3754865.79735135 1.4082973.79735135.5155135 0 2.1583784-.04637838 3.1902973-.09364865 1.9247027-.14091892 3.6130541-.32821622 4.1767297-.56278378.6100541-.28183784.9846487-.84462162.9846487-1.54921622 0-1.73562162-1.7356216-3.09664865-3.9876487-3.09664865-1.361027 0-2.6747837.46913514-3.7539729 1.36102703Zm-1.4074054 5.25591892c-1.501946 0-1.5955946.14002702-1.5955946 2.11110806 0 5.0213514 2.9084594 8.2116487 7.6015946 8.2116487 1.5947027 0 2.8148108-.3754865 4.1294594-1.3137568 1.4074054-.9382702 1.3601352-.9382702 1.5955946-.9382702.3282162 0 .6100541.2345675.6100541.5155135 0 .3291081-.1418108.5636757-1.1264595 1.4546757-2.252027 2.112-4.2703784 3.0502702-6.6633243 3.0502702-3.1439189 0-6.0532703-1.5483243-7.8361622-4.0349189-1.1728378-1.7365135-1.7837838-3.8948919-1.7837838-6.5232973 0-5.77143242 4.7404055-10.69824323 10.3236487-10.69824323 3.9885405 0 7.6015946 3.28483784 7.6015946 6.85062162 0 1.17283784-.3282162 1.31464865-3.0493784 1.31464865h-9.8072432Z" mask="url(#b)"/>
    </g>
    <path fill="#50504D" d="M192.381973 24.4592432c.04727-1.1728378-.329108-1.8292702-.939162-1.8292702-.797352 0-2.862081 1.1255675-4.034919 2.252027-.891892.8446216-1.407406 2.0174595-1.407406 3.1439189 0 1.5955946.84373 2.4402162 2.392055 2.4402162.891891 0 1.92381-.3282162 2.627513-.9391621.939162-.7500811 1.314649-1.7828919 1.361919-3.6594325v-1.4082973Zm.092757-6.3342162c0-2.2056486-.140027-2.9093513-.609162-3.4257567-.516406-.5164054-1.17373-.750973-2.252919-.750973-1.782892 0-2.815703 1.0328108-3.612163 3.5666757-.470027 1.5483243-1.126459 2.1583784-2.252918 2.1583784-.657325 0-1.172838-.4691352-1.172838-1.1264595 0-.891.703702-2.1111081 1.923811-3.3312162 2.205648-2.1583784 4.738621-3.3793784 6.94427-3.3793784 1.220108 0 2.299297.4227568 3.09754 1.221.891892.8446216 1.266487 1.7828919 1.266487 3.4248649v1.1264594L195.619541 24.882v.4227568l-.047271.4218648v.4218649c0 2.6284054.375487 3.6603243 1.314649 3.6603243.656432 0 1.079189-.2345676 1.87654-.891.610055-.5164054.750973-.610054.938271-.610054.280946 0 .516405.2809459.516405.610054 0 .5627838-.750973 1.4546757-2.112 2.4865946-.93827.750973-1.501946.9855405-2.392946.9855405-.657324 0-1.220108-.1881891-1.642865-.4227567-.375486-.1872973-.280946-.0936487-1.407405-1.2664865-.093649-.1881892-.233676-.2345676-.421865-.2345676-.141811 0-.375486.1872973-.703703.3754865-1.408297.9855406-3.660324 1.6892433-5.396837 1.6892433-2.205649 0-3.425757-1.1264595-3.425757-3.0966487 0-1.4082973.704594-3.0502703 1.923811-4.3176486 1.501946-1.5483244 3.473027-2.7684325 6.569675-3.8948919 1.221-.4218649 1.221-.4691352 1.221-2.0174595l.045487-1.0791892Z"/>
    <mask id="d" fill="#fff">
      <use xlink:href="#c"/>
    </mask>
    <path fill="#50504D" d="M203.549351 17.8431892c0-1.8301622 0-1.8301622-1.312865-2.1111081-.562783-.0945406-.703702-.2818379-.703702-.6573243 0-.2818379.093648-.4218649.421865-.5627838 1.594702-.8446216 2.440216-1.4546757 3.519405-2.7684325.374595-.5164054.516405-.6109459.750081-.6109459.422757 0 .610946.2818378.610946.9391622 0 .2818378 0 .0936486-.188189 1.8765405v.5636757c0 .2809459.093649.4691351.281838.4691351.093648 0 .234567-.1409189.421865-.3754865.04727-.0472702.09454-.1409189.798243-.8918919 1.361027-1.3137567 2.533865-1.9238108 3.706703-1.9238108 1.454675 0 2.487486 1.0791892 2.487486 2.5811352 0 1.1728378-.703703 1.9701891-1.783784 1.9701891-.515513 0-.891-.140027-1.547432-.6091621-.750973-.470027-1.17373-.6100541-1.690135-.6100541-1.501946 0-2.346568 1.4074054-2.346568 3.9885406v8.2589189c0 2.7684324.04727 2.8148108 2.815703 3.0966486 1.595594.1872973 1.877432.2818379 1.877432.8446217 0 .610054-.328216.7037027-2.346567.7037027l-1.876541-.0472703h-2.393838c-.750973.0472703-.93827.0472703-2.909351.1881892-.187297.0463784-.468243.0463784-.703703.0463784-.515513 0-.797351-.1872973-.797351-.5627838 0-.3282162.188189-.4227568.844622-.7037027 2.063837-.7973514 2.018351-.7037027 2.063837-3.2375676v-9.8545135m26.653298-3.4248649c0 .7500811-.704595 1.4537838-1.501054 1.4537838-.375487 0-.750973-.140027-1.17373-.4218649-.093649-.0936486.515513.3754865-1.923811-1.5019459-.470027-.4218649-1.314649-.6564324-2.112-.6564324-3.660324 0-6.194189 3.4248648-6.194189 8.2116486 0 5.2086487 3.237567 8.9153514 7.695243 8.9153514 1.595595 0 2.582027-.280946 4.364919-1.2664865.187297-.0936487.328216-.1409189.469135-.1409189.093649 0 .234568.0472702.328216.1409189.187298.1409189.281838.3282162.281838.4691351 0 .3282162-1.126459 1.2664865-2.674784 2.0647297-1.407405.7973514-3.284837 1.2664865-4.739513 1.2664865-5.115 0-9.24446-4.7395135-9.24446-10.5582162 0-5.5832432 4.974082-10.650973 10.370919-10.650973 3.425757 0 6.053271 1.1728379 6.053271 2.6747838m7.647973-1.0328108c0 1.5010541 0 1.5010541.329108 1.5010541.093648 0 .187297-.0463784.516405-.280946 1.876541-1.7365135 3.847622-2.6275135 5.95873-2.6275135 3.942162 0 6.195081 2.252027 6.195081 6.286946v9.1044324c0 2.1111081.328216 2.7211621 1.82927 3.0966486.750973.2345676 1.032811.4218649 1.032811.7973514 0 .5164054-.329108.750973-.985541.750973-.375486 0-1.079189-.0472703-1.782891-.0472703-.469136-.0463784-.891892-.0463784-1.12646-.0463784h-1.595594c-.233676 0-.797352.0463784-1.454676.0936487-.421865.0472702-.891892.0472702-1.079189.0472702-.938271 0-1.361027-.2345675-1.361027-.7509729 0-.4691352.328216-.6573244 1.361027-.8446217 1.454675-.1409189 1.736513-.610054 1.736513-3.003v-6.9924324c0-2.3456757-.281838-3.6130541-.93827-4.5985946-.704595-1.0319189-2.018351-1.641973-3.519405-1.641973-1.267379 0-2.628406.5627838-3.660325 1.4546757-1.079189.891-1.455567 1.9710811-1.455567 4.0821892v6.8042432c0 2.6747838.235459 3.2848379 1.080081 3.5666757.328216.0936487.281838.0936487 2.252919.3282162.420973.0463784.656432.3754865.656432.7500811 0 .470027-.469135.7982433-1.172838.7982433-.187297 0-1.17373-.0472703-1.782892-.0472703-.798243-.0463784-1.361919-.0463784-1.690135-.0463784h-1.735621c-.703703 0-1.314649.0463784-1.830163.0936487-.516405.0472702-1.079189.0936486-1.220108.0936486-.610054 0-.891892-.2345676-.891892-.750973 0-.5155135.140919-.5627837 1.172838-.7509729.986433-.280946 1.314649-.4218649 1.549216-.9373784.093649-.1881892.140919-.5636757.140919-1.0800811v-1.3137568l.046379-.7037027V7.66045946c0-.75008108-.093649-2.34567568-.187298-2.90935135-.09454-1.07918919-.14181-1.07918919-1.924702-1.73562162-.609162-.23456757-.797352-.42275676-.797352-.75097298 0-.3291081.18819-.46913513.610054-.5164054 1.595595-.32821622 3.378487-.8918919 4.644973-1.50194595.23546-.09364865.422757-.14002702.516406-.14002702.188189 0 .422757.14002702.470027.23456756.092757.23456757.092757.23456757.092757 2.58024325V13.3855135" mask="url(#d)"/>
    <path fill="#CF232A" d="M20.6767297 13.3846216c.7991352 1.1327027.9659189 3.3963243.9659189 4.8947027 0 3.1635406-.033 5.1613784-.033 6.5928649 0 5.6938378 0 5.5939459 2.0308379 6.1272973.4994594.1328919 1.1657027.1658919 1.1657027.5324594 0 .3326757-.3995676.3995676-.9329189.3995676-.5324595 0-3.1626487-.1667838-4.3943514-.1667838-1.2325946 0-4.0295675.1667838-4.6289189.1667838-.8321351 0-1.1987027-.0338919-1.1987027-.2996757 0-.4334594.9329189-.3995675 1.6981622-.6662432.932027-.3326757 1.5322702-.5663514 1.6981621-1.7650541.1667838-1.2317027.1667838-2.9958648.1667838-6.426081 0-4.2284595.033-6.7257568-.9659189-7.8914595-.9989189-1.1648108-2.0308379-1.4983784-3.762-1.4983784-1.7650541 0-3.29643245 1.2325946-3.8627838 2.2315135-.79913513 1.3984865-.83213513 4.3283514-.83213513 7.0923244 0 3.729.033 5.4931621.29967567 6.7587567.1328919.6992433.69924325 1.0658108 1.39848649 1.3654865.53245947.2327838 1.56437837.3326757 1.56437837.7322432 0 .3995676-.5993513.3665676-1.06491891.3665676-.46645946 0-3.696-.1667838-4.52902703-.1667838-.83213513 0-4.32835135.1667838-4.66102703.1667838C.19978379 31.9315135 0 31.8976216 0 31.5979459c0-.3995675.69924324-.4655675 1.49837838-.6653513 1.03191892-.2666757 1.56527027-.4334595 1.73116216-1.4653784.23367568-1.5652703.26667568-4.2623513.26667568-8.4239189 0-2.8638649 0-4.6619189-.43256757-5.2282703-.20067568-.2657838-.66624324-.4985675-1.2325946-.5654594-.73224324-.0998919-1.1657027-.0998919-1.1657027-.3995676 0-.2666757.13378378-.3326757.33356757-.3995676 1.99783784-.6662432 3.82889189-1.9309459 5.72683784-3.5631081.16678378-.1328919.46645946-.3656757.69924324-.3656757.36656757 0 .43256757.4325676.43256757.965919v2.2306216c0 .2996757.06689189.6323513.33356757.6323513.79913513 0 2.69708106-3.6291081 7.05843246-3.6291081 2.7309729 0 4.3292432 1.1318108 5.4271621 2.6631892" mask="url(#d)"/>
    <path fill="#CF232A" d="M35.1271622 21.6096486c-.6332433 0-5.6608379 2.4634055-5.6608379 5.8597298 0 1.8979459 1.4653784 2.6640811 2.5641892 2.6640811 1.1648108 0 2.0638379-.6662433 2.829973-1.7650541.899027-1.2985946.9989189-3.5292162.9989189-5.8267297 0-.6992433-.2336757-.9320271-.7322432-.9320271Zm.3326756 7.458c-1.0658108 1.5313784-3.0966486 3.3294325-5.9605135 3.3294325-2.8299729 0-3.9617838-2.2636216-3.9617838-3.8288919 0-3.4623243 3.4962163-5.1274865 6.1932973-6.492973 4.3283514-2.1637297 4.3943514-1.5982703 4.3943514-6.1594054 0-1.3324865.0668919-2.3644054-.2327838-2.9637567-.5993513-1.1987027-1.3984865-1.3984865-2.5641892-1.3984865-3.0627567 0-4.0616757 2.8299729-4.7279189 5.0275946-.2996757.9329189-1.4983784 1.4653783-2.3305135 1.4653783-.4664595 0-1.1318108-.3326756-1.1318108-1.0988108 0-2.0977297 3.3624324-6.4929729 9.1561621-6.4929729 2.763973 0 5.9605135.5663513 5.9605135 4.0955675 0 2.8968649-.3665675 10.6545406-.3665675 12.1199189 0 1.4653784.2996757 2.8638649 1.6981621 2.8638649 1.4653784 0 2.2645136-1.2325946 2.5641892-1.2325946.1997838 0 .2657838.1997838.2657838.3665676 0 .8321351-1.7641621 3.3963243-4.7279189 3.3963243-1.9978378 0-3.2964324-1.3315946-3.762-2.796973-.0338919-.1667838-.1007838-.2996756-.2666757-.2996756-.0998919 0-.1667838.033-.1997838.0998918ZM50.9395135 7.69167568c0 .89902702-.0998919 2.29662162-.0998919 3.22954052 0 .4655676.1997838.6992433.5324595.6992433l10.221973-.3995676c.9659189-.033 1.0658108.1997838 1.0658108 1.1987027 0 1.9639459-.0668919 3.8288919-.1328919 13.1188378 0 2.2975135 1.0988108 3.8957838 4.2614594 3.8957838 1.7650541 0 3.5631081-.8321351 4.2953514-2.1646216.5333513-.9659189.5663513-3.8288919.5663513-6.2262973 0-4.9945946 0-7.425-.5663513-7.9244595-.4655676-.4334594-1.1987027-.4994594-2.0638379-.5993513-.9659189-.1337838-1.3324864-.1337838-1.3324864-.4664595 0-.2996756.1337837-.4325675.7991351-.4664594l6.7596486-.1658919c.7652433-.0338919.9650271.2327838.9650271.866027 0 1.7311622-.3326757 7.3242162-.3326757 11.7203514 0 2.6631891.033 4.628027.3665676 5.2273783.2327837.4325676.6992432.5654595 1.6642702.5654595.3326757 0 1.0988108-.066 1.2985946-.066.1997838 0 .3326757.1328919.3326757.3326757 0 .2327838-.2327838.3665675-.8321351.4664594-.8990271.1658919-4.5281352 1.0649189-6.0934054 1.7311622-.2657838.0998919-.6983514.2666757-.7991352.2666757-.3326756 0-.4325675-.2336757-.4325675-.7661352 0-.6992432.0668919-1.2655946.0668919-2.1976216 0-.3665676-.0668919-.7322432-.3995676-.7322432-.5333514 0-3.0636487 3.5292162-7.1253243 3.5292162-2.4312973 0-5.8267298-1.3984865-5.8267298-6.1264054 0-2.6310811.1658919-10.3557568.1658919-11.3207838 0-1.897946-.0668919-1.897946-3.8288919-1.897946-1.2325946 0-2.2315135.033-2.9307567.066-.6653514.0338919-.7652433.0998919-.8321352 1.1987027-.0998919 1.6651622-.1667837 4.1954595-.1667837 9.6895136 0 2.2975135-.033 3.696.4664594 4.6289189.4664595.8321351 1.1657027 1.1318108 2.3644054 1.1318108 1.5643784 0 3.2625406-.833027 3.4293243-.833027.1667838 0 .2666757.0998919.2666757.2336756 0 .4325676-3.1305405 3.2295406-6.459973 3.2295406-3.5961081 0-4.3952432-2.6640811-4.3952432-6.3261892 0-1.831946.2327838-10.4217568.2327838-11.0211081 0-.5993514-.033-1.2985946-.9989189-1.2985946h-1.4644865c-.1997838 0-.3665676-.0668919-.3665676-.2336757 0-.4325676.3995676-.4655676 1.0988108-.965027 1.5982703-1.1327027 3.9626757-2.99675677 5.0944865-4.69491893.2666757-.39956757.3995676-.73313514.6992433-.73313514.2996756 0 .4664594.19978379.4664594.60024325"/>
    <path fill="#CF232A" d="M80.4727297 15.1826757c-.2996756-.033-.5324594-.0998919-.5324594-.2657838 0-.2996757.2996756-.3995676.899027-.6332433.6992432-.2657837 3.4962162-1.831054 4.7618108-3.0627567.6323514-.6332433.899027-.6992433 1.0979189-.6992433.2336757 0 .4664595.1667838.4664595.7991352v2.3974054c0 .4325676.1328919.4994594.2666757.4994594.6662432 0 2.2975135-3.5631081 5.4601621-3.5631081 1.798946 0 2.9637568 1.2985946 2.9637568 2.8638649 0 1.5982703-1.1987027 2.5971892-2.5632973 2.5971892-1.7980541 0-2.1646216-1.864946-3.7958919-1.864946-.833027 0-1.1657027.5993514-1.4653784.9320271-.8321351.9329189-.899027 3.5961081-.899027 7.4918919 0 3.6291081-.0668919 6.4599729.3995676 7.1592162.5324594.8321351 2.5971891 1.1318108 3.2295405 1.2647027.5333513.0998919.9659189.0668919.9659189.4994594 0 .3335676-.6332432.3335676-.9989189.3335676-.3665676 0-3.9287838-.1667838-5.4271622-.1667838-1.4983783 0-4.7288108.1667838-5.1283783.1667838-.3995676 0-.9650271-.0338919-.9650271-.3335676 0-.3656756.5654595-.4325675 1.0658108-.5654594.3986757-.0998919 1.8970541-.3995676 2.1967298-1.2325946.2996756-.8321351.3665675-2.5971892.3665675-8.2571351 0-5.6608379-.0998919-6.2262973-2.3644054-6.3600811"/>
    <path fill="#CF232A" d="M105.246811 11.4875676c-3.696 0-5.5609461 3.1956486-5.5609461 4.8278108 0 .5993513.6662431.7652432 2.9298651.7652432 2.664081 0 6.393081-.1997838 6.393081-2.6301892 0-.932027-.965027-2.9628648-3.762-2.9628648Zm6.092513 6.9915405c-2.895973 0-6.459081-.2657838-10.65454-.2657838-1.098811 0-1.5652705.033-1.5652705 2.0638379 0 4.8617027 2.1316215 9.124054 7.5917835 9.124054 4.095568 0 5.893622-2.8638648 6.226298-2.8638648.266675 0 .333567.1328918.333567.2996756 0 .8321352-3.895784 5.5270541-9.02327 5.5270541-5.5609461 0-9.8892974-4.0625676-9.8892974-10.4886487 0-6.7587567 5.1274865-11.4206756 11.1210004-11.4206756 4.462135 0 7.857567 3.3633243 7.857567 6.7926486 0 1.2317027-.665351 1.2317027-1.997838 1.2317027Z"/>
  </g>
</svg>