<?xml version="1.0" encoding="UTF-8" standalone="no"?>
<svg
   id="Layer_1"
   data-name="Layer 1"
   viewBox="0 0 172.42 49.770155"
   version="1.1"
   sodipodi:docname="optica.svg"
   width="172.42"
   height="49.770157"
   inkscape:version="1.2.2 (b0a8486, 2022-12-01)"
   xmlns:inkscape="http://www.inkscape.org/namespaces/inkscape"
   xmlns:sodipodi="http://sodipodi.sourceforge.net/DTD/sodipodi-0.dtd"
   xmlns="http://www.w3.org/2000/svg"
   xmlns:svg="http://www.w3.org/2000/svg">
  <defs
     id="defs501" />
  <sodipodi:namedview
     id="namedview499"
     pagecolor="#ffffff"
     bordercolor="#000000"
     borderopacity="0.25"
     inkscape:showpageshadow="2"
     inkscape:pageopacity="0.0"
     inkscape:pagecheckerboard="0"
     inkscape:deskcolor="#d1d1d1"
     showgrid="false"
     inkscape:zoom="6.1710662"
     inkscape:cx="86.046719"
     inkscape:cy="25.360285"
     inkscape:window-width="1883"
     inkscape:window-height="1027"
     inkscape:window-x="1680"
     inkscape:window-y="25"
     inkscape:window-maximized="1"
     inkscape:current-layer="Layer_1" />
  <path
     d="m 131.78762,18.9484 a 9.8242967,9.3398936 0 1 1 -0.15786,-6.117718 h 4.21572 a 13.928587,13.241816 0 0 0 -4.05786,-6.4708344 13.696444,13.021118 0 0 0 -9.34144,-3.4428719 13.835729,13.153536 0 1 0 9.39716,22.8642003 14.151444,13.453684 0 0 0 4.16,-6.779809 h -4.21572 z M 153.77621,3.3760253 h -3.9 L 136.8762,28.809138 h 4.58714 l 10.35359,-20.3041163 4.91214,9.6135583 h -5.33929 l -1.92215,3.74302 h 9.12787 l 3.51929,6.974022 h 4.59644 z M 67.316833,3.3230579 H 90.958288 V 7.0307663 H 67.316833 Z M 77.029701,28.764999 H 81.24542 V 10.305908 H 77.029701 Z M 53.815389,3.3230579 H 40.258232 V 28.764999 h 4.271433 V 7.0307663 h 8.542866 c 3.84429,0 5.766435,1.209419 5.766435,3.6900517 0,2.886716 -3.157146,3.592946 -5.766435,3.592946 h -4.113576 v 3.74302 h 4.967863 a 10.613584,10.090264 0 0 0 6.500007,-1.818542 7.177865,6.8239488 0 0 0 2.720717,-5.464456 C 63.156814,6.3068803 59.423967,3.3230579 53.815389,3.3230579 Z M 97.690437,28.764999 h 4.215723 V 3.3230579 H 97.690437 Z M 34.231796,16.070512 A 13.872873,13.188848 0 0 1 6.6439086,18.092096 h 4.1042904 a 9.7964395,9.31341 0 1 0 0.05572,-4.246209 H 6.6903373 A 14.142158,13.444856 0 0 1 10.961771,6.4039869 13.872873,13.188848 0 0 1 34.231796,16.114652 Z"
     id="path472"
     style="stroke-width:0.90539" />
  <polygon
     points="97.7,54.47 92.45,54.47 92.45,51.16 98.29,51.16 98.29,49.62 90.66,49.62 90.66,60.84 92.45,60.84 92.45,55.99 97.7,55.99 "
     id="polygon474"
     transform="matrix(0.92857245,0,0,0.88278768,-7.154678,-9.7421998)" />
  <path
     d="m 88.534713,42.951397 c -1.420716,0 -2.033574,-1.121141 -2.033574,-2.568913 0,-1.447771 0.575716,-2.542428 2.015003,-2.542428 1.439286,0 2.015002,1.059346 2.015002,2.489462 0,1.430116 -0.557143,2.621879 -1.996431,2.621879 z m -0.04643,1.156451 c 2.395717,0 3.630719,-1.53605 3.630719,-3.82247 0,-2.28642 -1.235002,-3.672396 -3.575004,-3.672396 -2.340003,0 -3.630719,1.53605 -3.630719,3.760675 0,2.224625 1.188574,3.734191 3.575004,3.734191 z"
     id="path476"
     style="stroke-width:0.90539" />
  <path
     d="m 93.688291,43.966602 h 1.560001 v -3.610601 c 0,-1.385977 0.677857,-2.268765 2.154292,-2.268765 a 3.0085748,2.860232 0 0 1 0.352851,0 v -1.438943 h -0.417858 a 2.3492883,2.2334528 0 0 0 -2.144999,1.474255 c 0,-0.379598 0,-1.068173 0,-1.315354 h -1.485716 c 0,0.556157 0,1.280042 0,1.562535 z"
     id="path478"
     style="stroke-width:0.90539" />
  <path
     d="m 98.990435,43.966602 h 1.569285 v -3.875437 c 0,-1.28887 0.43643,-2.206969 1.66215,-2.206969 1.00286,0 1.33715,0.600295 1.33715,1.765575 v 4.334487 h 1.55999 v -4.043167 c 0,-1.244731 0.52001,-2.074551 1.65286,-2.074551 0.92858,0 1.35573,0.547328 1.35573,1.668468 v 4.413939 h 1.55999 v -4.413939 c 0,-1.845026 -0.78,-2.877888 -2.43285,-2.877888 a 2.3678597,2.2511086 0 0 0 -2.36786,1.324182 2.0242879,1.9244772 0 0 0 -2.11715,-1.324182 2.3307169,2.215797 0 0 0 -2.21001,1.271215 c 0,-0.344287 0,-0.882788 0,-1.085829 h -1.578566 c 0,0.556156 0,1.280042 0,1.562534 z"
     id="path480"
     style="stroke-width:0.90539" />
  <path
     d="m 112.8076,39.69391 a 1.9314307,1.8361984 0 0 1 1.94071,-1.889166 c 1.20715,0 1.78286,0.670919 1.85715,1.889166 z m 1.85714,4.413938 a 3.0921463,2.939683 0 0 0 3.34286,-2.304075 h -1.50428 a 1.6714304,1.5890178 0 0 1 -1.76429,1.147624 c -1.25357,0 -1.92215,-0.882788 -1.99643,-2.224625 h 5.35786 a 3.8535757,3.6635688 0 0 0 0,-0.476706 c 0,-2.189313 -1.12358,-3.637084 -3.39858,-3.637084 -2.27499,0 -3.56571,1.562534 -3.56571,3.787158 0,2.224626 1.35571,3.707708 3.56571,3.707708 z"
     id="path482"
     style="stroke-width:0.90539" />
  <path
     d="m 119.6976,43.966602 h 1.56001 v -3.610601 c 0,-1.385977 0.67786,-2.268765 2.145,-2.268765 h 0.35286 v -1.438943 h -0.40857 a 2.3585741,2.2422807 0 0 0 -2.1543,1.474255 c 0,-0.379598 0,-1.068173 0,-1.315354 h -1.48571 c 0,0.556157 0,1.280042 0,1.562535 z"
     id="path484"
     style="stroke-width:0.90539" />
  <rect
     x="125.08333"
     y="34.061726"
     width="1.5414302"
     height="9.9048777"
     id="rect486"
     style="stroke-width:0.90539" />
  <path
     d="m 129.23404,46.853318 c 1.69929,0 2.21001,-0.768025 2.90644,-2.727814 l 2.62786,-7.31831 h -1.61572 c -0.38072,1.032862 -1.70857,5.217276 -1.85715,5.817572 -0.17643,-0.617952 -1.45785,-4.61698 -1.85714,-5.817572 h -1.70857 l 2.73929,7.512524 c -0.31572,0.882788 -0.59429,1.315354 -1.43,1.315354 a 7.0478649,6.7003585 0 0 1 -0.7243,-0.05296 v 1.174108 a 6.0635781,5.7646035 0 0 0 0.91929,0.09711 z"
     id="path488"
     style="stroke-width:0.90539" />
  <path
     d="m 146.84906,43.507553 a 5.7850063,5.4997672 0 0 1 -8.07858,0 5.5714347,5.296726 0 0 1 0,-7.530179 5.831435,5.5439066 0 0 1 8.07858,0 5.5064346,5.2349309 0 0 1 1.67144,3.769504 5.4228631,5.15548 0 0 1 -1.67144,3.760675 m -1.29071,-6.462006 a 3.7142898,3.5311507 0 0 0 -2.78572,-1.103485 3.8164328,3.6282574 0 0 0 -2.78572,1.103485 4.0671473,3.86661 0 0 0 0,5.376177 3.8350042,3.6459131 0 0 0 5.49715,0 4.0485759,3.8489542 0 0 0 0,-5.376177"
     id="path490"
     style="stroke-width:0.90539" />
  <path
     d="m 150.48907,42.165716 a 1.922145,1.8273705 0 0 0 2.07072,1.385976 1.5321446,1.4565996 0 0 0 1.69,-1.500738 c 0,-0.997551 -0.79857,-1.235904 -1.90358,-1.765576 -1.85714,-0.882788 -2.93428,-1.562534 -2.93428,-3.089757 a 2.9157175,2.7719533 0 0 1 3.19428,-2.798437 c 1.58786,0 2.67429,0.609124 3.07358,1.668469 l -1.35571,0.670919 a 1.7828591,1.6949524 0 0 0 -1.57858,-0.882788 1.34643,1.2800422 0 0 0 -1.52286,1.280042 c 0,0.979894 0.83572,1.280042 2.03357,1.765576 1.85715,0.820992 2.78572,1.544878 2.78572,3.010306 0,1.889165 -1.32786,3.133896 -3.53786,3.133896 a 3.101432,2.9485108 0 0 1 -3.37072,-2.295248 z"
     id="path492"
     style="stroke-width:0.90539" />
  <polygon
     points="187.28,61.87 185.3,61.87 181.73,53.43 178.12,61.87 176.15,61.87 181.72,49.92 "
     id="polygon494"
     transform="matrix(0.92857245,0,0,0.88278768,-7.154678,-9.7421998)" />
  <polygon
     points="180.45,57.1 180.35,59.99 183.71,58.66 "
     id="polygon496"
     transform="matrix(0.92857245,0,0,0.88278768,-7.154678,-9.7421998)" />
</svg>
